<svg xmlns="http://www.w3.org/2000/svg" xmlns:xlink="http://www.w3.org/1999/xlink" width="792" height="792"><g><svg xmlns="http://www.w3.org/2000/svg" xmlns:xlink="http://www.w3.org/1999/xlink" width="792" height="792"/><svg xmlns="http://www.w3.org/2000/svg" width="792" height="792" version="1.0"><g fill="#f8f9fa" transform="matrix(.1 0 0 -.1 0 792)"><path d="M0 3960V0h7920v7920H0V3960z"/></g></svg><svg xmlns="http://www.w3.org/2000/svg" width="792" height="792" version="1.0"><g fill="#b9babb" transform="matrix(.1 0 0 -.1 0 792)"><path d="M0 3960V0h7920v7920H0V3960zm3790 653c0-20-3-24-11-16-7 7-9 19-6 27 10 24 17 19 17-11zm90-29c0-8-4-12-10-9-5 3-10 10-10 16 0 5 5 9 10 9 6 0 10-7 10-16zm180 12c0-2-7-6-15-10-8-3-15-1-15 4 0 6 7 10 15 10s15-2 15-4zm77-118c-3-8-6-5-6 6-1 11 2 17 5 13 3-3 4-12 1-19zm-333-23c3-8 1-15-3-15-5 0-11 7-15 15-3 8-1 15 3 15 5 0 11-7 15-15zm-315-315c13-6 18-23 20-64 2-54-12-83-24-47-29 91-167 123-257 60-62-44-86-144-50-204 11-17 59-68 108-115 233-222 252-243 259-293 9-56-1-145-20-191-30-71-122-117-237-118-69 0-87 4-142 31-35 17-66 39-68 49-7 27 3 162 12 157 4-2 10-26 14-52 8-61 36-107 78-129 47-25 175-23 220 2 49 28 78 93 78 174v65l-178 175c-154 150-181 182-195 224-23 68-22 89 13 162 31 65 69 102 125 123 34 12 216 6 244-9zm-1919 2c0-2-13-8-30-13-40-14-42-34-38-404 3-310 3-310 30-362 42-79 86-117 165-144 62-20 74-21 145-11 43 6 91 18 107 26 44 23 98 84 128 144 26 54 26 54 31 373l5 319-37 35-37 35h63c35 0 81 3 103 6l40 6-42-27-43-26-1-102c-1-289-10-566-20-602-32-123-168-219-330-232-48-4-80-1-120 12-130 43-183 86-237 195-27 55-27 55-30 391l-4 337-34 18c-19 10-34 21-34 24s50 5 110 5c61 0 110-1 110-3zm3818-136c114-17 186-51 255-120 59-57 99-131 122-223 14-54 14-69 1-131-40-194-156-309-359-357-87-21-140-18-230 10-139 43-223 110-279 222-25 51-31 79-36 151-6 119 9 182 63 264 67 100 155 159 274 183 86 17 81 17 189 1zm-1368-16c0-4-11-11-24-14-21-5-25-14-31-59-3-28-5-110-3-182l3-130 195-3c107-2 223 0 258 3l62 7v163c0 161 0 164-25 191-14 15-25 28-25 28 0 1 44 2 97 2 75 1 93-2 79-10-54-33-51-8-54-368-2-183 0-348 3-366 5-25 14-35 40-47 19-7 35-15 35-17s-50-3-111-3c-79 0-105 3-93 10 53 31 54 34 54 210v165h-520v-163c0-171 8-205 48-208 9-1-30-5-88-9-58-5-107-6-109-5-2 2 14 12 35 22l39 18 3 354 2 353-35 32-34 32h99c55 1 100-2 100-6zm2436-22c64-34 121-96 130-143 20-110-31-225-121-273-29-15-245-32-245-19 0 3 35 13 78 22 42 9 91 26 108 36 117 71 133 267 28 335-37 25-129 44-211 44h-73v-334c0-404 2-422 44-440 28-12 20-13-85-13-95 1-114 4-100 14 9 7 21 13 28 13 29 0 33 44 33 384v345l-32 31-33 31 200-3c193-4 202-5 251-30zm-3663-365c64-5 77-8 75-22-2-9-17-19-33-22-39-9-349-11-369-3-21 8-20 41 2 47 25 7 234 7 325 0zm2446 377c-67-20-160-73-194-111-83-92-120-227-95-351 15-81 39-131 91-193 53-64 78-81 162-106 56-18 82-20 140-15 180 18 291 128 331 327 15 71 14 82-2 145-26 99-50 142-107 199-55 56-93 77-181 100-63 16-104 18-145 5z"/></g></svg><svg xmlns="http://www.w3.org/2000/svg" width="792" height="792" version="1.0"><g fill="#6d6b6e" transform="matrix(.1 0 0 -.1 0 792)"><path d="M0 3960V0h7920v7920H0V3960zm3982 768c8-13 15-36 16-51 3-43 20-67 47-67 30 0 32-15 4-30s-46 1-54 48c-3 21-10 44-16 52-8 13-12 11-29-9-23-26-25-15-9 42 12 43 21 46 41 15zm168-178c-8-128-4-125-196-124-92 1-160 6-166 12-5 5-12 58-15 116-6 106 0 124 27 91 10-12 10-18 0-30-9-11-11-34-7-74 10-92 9-91 91-92 39 0 87-1 106-1 105-1 120 1 129 25 4 12 11 41 14 65 4 35 1 46-15 62-19 17-19 20-5 26 9 3 19 16 23 27 13 41 19-7 14-103zm-235 63c-3-15-14-32-23-39-14-11-19-10-29 3-18 23-16 33 6 33 10 0 21 7 25 15 10 27 29 17 21-12zm-425-468c18-6 20-16 20-86 0-43-2-79-5-79s-12 18-21 40c-30 75-94 108-181 95-85-13-155-107-138-185 11-48 57-101 208-238 81-74 152-147 161-166 19-40 21-151 5-211-23-85-134-155-244-155-79 0-191 39-217 75-9 12-9 141 1 175 9 31 16 19 26-40 21-127 69-165 205-158 71 3 82 6 110 33 33 32 60 106 60 165 0 51-39 99-194 240-167 152-203 207-194 300 7 68 61 156 112 182 22 11 60 23 85 27 45 6 163-2 201-14zm-1910-5c0-4-15-11-32-16l-33-10-3-344c-2-345-2-345 28-407 56-114 143-159 287-150 99 6 156 34 210 105 58 77 63 110 63 459v313l-40 25c-22 14-40 27-40 29s50 3 110 3c61 0 110-2 110-4 0-1-18-14-39-28l-40-24-3-343-3-343-34-63c-41-75-74-105-160-145-49-23-83-32-143-35-168-10-299 63-370 206-22 46-23 56-28 382-3 184-8 340-12 346s-21 17-38 24c-16 7-30 16-30 20s54 8 120 7c66 0 120-3 120-7zm3830-131c175-28 313-158 357-336 22-87 7-178-44-275-72-138-217-226-389-236-134-7-287 50-371 139-83 88-125 235-104 363 14 86 42 144 98 207 110 122 264 169 453 138zm-1370-18c0-4-15-11-32-16l-33-10-3-177-2-178h500v167c0 167 0 167-31 199l-30 31 103-4c57-3 107-6 112-7s-7-12-27-25l-36-22-3-182c-2-100-2-262 0-360l3-179 39-15c22-9 40-20 40-25 0-4-47-8-104-8s-112-3-122-7c-28-11-11 19 22 37 29 17 29 17 34 176 3 87 1 164-3 169-5 6-104 11-253 12l-244 2 2-171 3-172 37-20c48-25 41-35-19-26-52 8-111 6-161-5-46-10-41 13 8 33l40 17v724l-30 18c-53 31-37 38 80 35 60-2 110-7 110-11zm2370-1c56-16 127-65 157-111 23-35 27-51 27-109-1-54-7-77-30-119-52-96-105-122-254-125-101-1-120 14-35 30 101 18 115 23 160 65 99 92 85 256-26 314-35 19-188 40-222 31l-27-6v-742l40-15c22-9 40-19 40-22s-61-6-135-6c-139 0-141 1-77 36 19 11 31 27 35 49 11 55 8 659-3 681-6 10-25 27-43 36-32 18-32 18 68 24 122 8 277 3 325-11zm-3540-390c12-7 12-13 4-27-10-16-32-18-209-21-220-3-233 0-216 56 3 7 409 0 421-8zm2319 357c-81-32-138-75-174-132-109-173-86-385 59-530 43-43 62-54 118-70 80-21 210-17 272 10 53 23 133 100 162 157 28 55 54 156 54 210 0 62-46 188-87 239-100 123-265 170-404 116z"/></g></svg><svg xmlns="http://www.w3.org/2000/svg" width="792" height="792" version="1.0"><g fill="#172435" transform="matrix(.1 0 0 -.1 0 792)"><path d="M0 3960V0h7920v7920H0V3960zm3984 778c9-12 16-37 16-55 0-41 23-63 66-63 34 0 74 28 74 52 0 9 3 9 11 1 18-18 7-194-14-227-17-26-17-26-182-26-195 0-184-8-188 137-2 83 0 98 14 101 9 2 24-4 33-14 16-15 16-17 0-28-13-10-16-25-12-79 2-36 6-69 9-72 12-11 279-12 294-1 9 7 16 33 17 71 3 70-12 81-62 43-32-23-32-23-51 1-10 13-19 33-19 45s-6 30-13 40c-13 18-15 17-35-12-12-16-22-39-22-51 0-19-26-41-48-41-7 0-32 42-32 55 0 3 9 5 19 5 30 0 71 43 71 74s16 66 30 66c5 0 16-10 24-22zm-469-218c0-13-128-15-1092-15-600 0-1094 3-1098 7-27 26 39 28 1098 26 963-3 1092-5 1092-18zm3074 11c46-29-11-31-1067-31-587 0-1084 3-1105 6-30 5-35 9-26 20 10 12 191 14 1098 14 601 0 1092-4 1100-9zm-3098-382c9-4 19-23 23-40 9-47 7-139-3-139-5 0-20 25-34 55-39 80-102 107-193 80-88-25-136-110-108-191 13-39 72-101 260-274 113-105 118-114 117-221-2-143-51-216-167-249-67-19-180-10-248 20-72 31-83 54-74 147 13 125 28 137 46 36 22-130 56-158 186-157 67 1 88 5 112 22 39 29 62 88 62 164 0 62 0 62-112 173-62 61-131 126-154 145-57 49-99 111-113 166-28 112 56 244 174 275 36 10 203 1 226-12zm-1904-6c2-6-10-14-27-18-16-4-35-15-40-25-13-24-13-600 0-668 15-79 69-153 138-188 49-25 69-29 137-29 103 0 160 22 215 81 80 87 83 101 88 425 3 158 2 306-2 330-6 39-12 47-54 71l-47 27 113 2c61 1 117 2 122 3 20 2 12-19-12-31-14-7-31-19-37-27-8-9-14-122-19-357-8-344-8-344-34-394-14-28-41-66-60-84-70-69-220-119-320-108-26 3-81 20-122 37-117 49-188 143-207 275-5 33-9 188-9 345v285l-47 25-47 25 119 6c148 6 148 7 152-8zm3810-127c145-26 252-95 317-206 86-146 87-276 5-430-18-35-54-80-79-102-62-54-186-107-281-121-70-10-84-9-155 12-155 45-234 98-293 199-50 85-65 160-57 276 6 84 9 94 51 162 73 117 167 182 304 209 87 17 92 17 188 1zm-1364-16c27 0 20-17-10-25-52-13-53-16-53-196v-169h234c129 0 241 3 250 6 14 5 16 29 16 165 0 159 0 159-30 186-16 14-30 29-30 33 0 8 217 6 226-2 3-4-12-16-35-28l-41-20v-360c0-360 0-360 28-370 37-14 55-25 59-37 2-6-45-10-132-9-74 0-135 3-135 6 0 4 16 14 35 23 20 9 40 28 45 43 6 14 10 90 10 170v144h-500v-157c0-87 4-163 8-170 4-6 26-19 50-28 23-10 42-21 42-26 0-4-51-7-112-6-62 1-125-1-140-6-47-13-34 18 17 43l45 22v354c0 354 0 354-27 371-28 17-43 33-43 44 0 3 46 4 103 2 56-1 110-2 120-3zm2417-21c109-52 158-129 147-235-11-107-84-194-180-214-64-13-212-10-211 5 0 6 34 17 75 25 105 22 133 36 173 87s54 118 37 179c-25 93-80 125-229 132l-102 5 2-369 3-369 30-15c51-26 57-32 47-42-6-6-34-4-75 3-46 9-83 9-126 2-64-10-92-4-69 14 7 6 23 14 35 17 54 17 53 10 53 387v349l-40 28c-21 15-39 31-40 35 0 5 93 7 208 5 199-3 209-4 262-29zm-3581-373c21-13 12-46-15-56-38-15-387-13-402 2-18 18-15 56 6 60 29 7 399 1 411-6zm2351 355c-123-39-182-89-230-192-38-84-49-169-30-261 16-84 41-130 108-198 49-51 67-61 131-80 61-19 86-21 149-16 91 9 121 20 189 74 62 49 106 132 128 240 14 65 14 79 0 139-23 97-48 147-103 202-60 60-94 78-180 97-84 17-95 17-162-5z"/></g></svg></g></svg>