<svg xmlns="http://www.w3.org/2000/svg" xmlns:xlink="http://www.w3.org/1999/xlink" width="792" height="792"><g><svg xmlns="http://www.w3.org/2000/svg" xmlns:xlink="http://www.w3.org/1999/xlink" width="792" height="792"/><svg xmlns="http://www.w3.org/2000/svg" width="792" height="792" version="1.0"><g fill="#fff256" transform="matrix(.1 0 0 -.1 0 792)"><path d="M0 3960V0h7920v7920H0V3960z"/></g></svg><svg xmlns="http://www.w3.org/2000/svg" width="792" height="792" version="1.0"><g fill="#ffdd5f" transform="matrix(.1 0 0 -.1 0 792)"><path d="M0 3960V0h7920v7920H0V3960zm3393 1451c8-8 2-11-21-11-18 0-32-5-32-11s-9-9-20-6-23 1-26-4-14-9-24-9-27-11-38-25c-19-24-23-25-152-25-85 0-129 4-125 10 3 6-1 10-9 10-9 0-15 6-13 12 1 8-11 13-30 14-18 1-33-2-33-7s-6-9-14-9-18-5-22-12-3-8 4-4c8 5 10 2 6-8-3-9-12-16-19-16s-18-7-25-15c-7-9-15-13-18-10s-11-4-17-16c-10-18-13-11-19 52-4 48-3 75 4 77 5 2 10 10 10 17 0 12 52 14 311 11 208-3 315-8 322-15zm582 8c-4-5 1-9 9-9 9 0 16 4 16 8 0 5 131 8 290 8 160 0 290-2 290-3s-6-8-14-15c-9-9-16-45-19-97-5-87-10-102-29-83-10 10-10 17 0 32 10 17 9 25-4 46-9 14-13 24-8 23 29-5 24 4-11 21-49 24-100 27-92 5 4-8 1-17-5-21-7-5-8-2-4 7 4 8 1 6-7-3-12-15-32-18-135-18-122 0-122 0-156 34-35 33-79 46-162 46-19 0-34 5-34 11 0 7 10 9 26 5 14-4 23-3 21 2-3 4 3 9 14 9 11 1 17-2 14-8zm435-109c0-5-4-10-10-10-5 0-10 5-10 10 0 6 5 10 10 10 6 0 10-4 10-10zm-1620-60c0-5-2-10-4-10-3 0-8 5-11 10-3 6-1 10 4 10 6 0 11-4 11-10zm25-204c4-19 4-44 0-56-4-13-3-20 1-17 5 3 9-12 8-34 0-21 2-39 6-39s-3-20-14-45l-21-45-7 37c-12 63-10 125 4 117 6-4 4 3-5 17-21 29-22 59-3 59 9 0 12 7 9 20-3 11-1 20 5 20s14-15 17-34zm-5-256c0-5-2-10-4-10-3 0-8 5-11 10-3 6-1 10 4 10 6 0 11-4 11-10zm30 1c0-6-4-12-8-15-5-3-9 1-9 9s4 15 9 15c4 0 8-4 8-9zm6-66c0-13-4-21-9-18s-6-5-2-18c5-13 8-37 7-54 0-16 6-38 15-47 10-11 12-18 5-18s-12-13-12-30c0-23-4-28-16-23-11 4-15 15-12 39 2 19 1 35-3 36-3 2-9 42-13 91-7 87-7 87 16 76 16-7 24-19 24-34zm51-937c-2-13-4-5-4 17-1 22 1 32 4 23 2-10 2-28 0-40zm28-17c3-5 2-12-3-15s-9 1-9 9c0 17 3 19 12 6zm43-167c13-9 34-27 47-40 23-23 30-24 151-24 70 0 125-2 123-4s-86-6-186-8l-181-5-4 36c-4 31 6 59 22 61 3 0 16-7 28-16zm1575-33c23-39 22-49-3-20-10 13-19 19-20 14 0-6 5-16 12-23 9-9-10-12-87-10-84 2-89 2-31 5 42 3 74 9 83 18 10 10 11 15 2 15s-8 4 1 15c17 21 23 19 43-14zm-375-37c-3-2-97-4-209-5-330 0-405 2-387 9 19 8 604 4 596-4zm-668-4c-30-4-89-4-130 0-66 6-59 7 55 7 95 0 115-2 75-7zm783 3c-13-2-33-2-45 0-13 2-3 4 22 4s35-2 23-4zm-49-740c-1-115-2-212-4-218-9-38 1-43 33-14 87 81 177 105 269 73 69-25 142-94 156-149 6-22 12-127 14-233 1-117 7-197 13-202 5-5 25-10 44-12 21-2 39-11 49-25 14-23 14-23-177-23s-191 0-191 25c0 22 4 25 39 25 53 0 71 8 71 32 0 14 5 18 18 14 13-5 17 1 19 25 1 17-3 32-11 35-9 4-14 30-14 92-1 48-7 126-13 174-10 77-15 92-46 128s-39 40-79 40c-49 0-97-21-126-54-26-29-48-80-48-111 0-14-3-25-7-25-14 0-8-307 6-324 7-8 31-19 54-23 33-7 43-14 45-31 3-22 3-22-189-22-179 0-191 1-178 17 12 14 12 16-1 9-8-4-6 0 4 8 11 9 35 16 53 16 35 0 58 26 47 54-3 9-2 16 2 16 11 0 2 781-9 798-5 6-21 12-37 12-43 0-58 9-53 31 3 10 10 19 17 20 6 0 56 6 111 13 55 8 105 14 110 15 6 1 10-73 9-206zm-628 113c82-33 82-33 93-10 6 13 17 24 26 24 13 0 15-20 15-126 0-147-6-152-60-49-30 58-44 73-94 104-50 30-68 36-115 35-73 0-144-32-165-73-24-45-19-118 10-169 1-1 12-5 24-7 13-3 27-10 30-16 4-6 11-10 16-10 21 1 72-24 67-33-4-5 1-7 10-3 9 3 19 2 22-3 4-6 14-10 24-10 34 0 177-79 223-123 72-70 92-116 84-196-11-108-64-178-171-228-56-26-69-28-180-27-108 0-124 3-163 25-118 66-107 62-110 32-4-26-17-42-35-43-4 0-6 39-5 88 1 48-1 113-6 145-10 78 7 75 45-8 55-123 121-171 247-182 91-7 146 9 194 58 21 21 36 39 32 39-3 0 1 11 10 25 21 31 20 43-4 89-10 22-17 42-15 46 3 4-11 20-30 34-24 18-33 22-28 11 3-9 17-21 31-26s22-12 19-15c-6-7-84 37-86 49 0 4-1 11-1 15s-10 8-21 9c-21 2-21 1-3-12 15-12 16-14 4-15-9 0-20 4-25 8-6 4-46 23-90 42-92 39-184 96-199 125-6 11-22 37-35 58-34 53-35 164-2 224 22 40 92 96 143 114 87 30 177 25 274-15zm-1858 12c-3-7-18-17-34-21-56-17-78-32-87-62-13-43-17-511-5-565 6-25 11-52 12-60 4-27 34-75 69-109 30-28 46-35 109-44 89-12 156-4 202 28 19 13 37 20 41 17 4-4 5 0 3 8s3 14 10 12c8-1 11 2 7 7-3 6 2 19 12 29s19 25 21 33 10 28 19 46c12 26 14 77 11 300-3 265-3 268-27 300-15 20-43 39-72 49-26 10-46 21-43 25 2 4-2 10-8 12-7 3 74 6 180 6 134 1 192-2 192-10 0-6-7-8-16-5-8 3-13 2-10-2 3-5-19-20-49-35-66-32-63-16-68-382-5-305-10-331-78-409-23-26-64-57-97-72-53-26-66-28-192-28-184-1-235 12-303 74-39 37-49 52-39 58 11 7 10 12-3 26-9 9-14 24-11 32 4 12 2 15-9 11-8-4-17-2-20 3-3 4 0 10 7 12 7 3 8 9 3 19-12 19-14 44-19 345-3 189-8 267-17 282-7 12-32 28-56 37s-41 20-38 25-3 11-12 13c-10 3 80 5 200 6 171 1 218-2 215-11zm3682-293c25-8 73-36 108-62 88-65 117-126 117-243 0-115-36-195-116-257-87-67-119-77-239-77s-150 11-233 84c-56 50-78 90-102 184-16 66-16 73 0 133 9 34 15 64 14 65-13 10 104 135 122 131 5-2 9 1 9 6 0 8 95 46 140 54 40 8 131-1 180-18zm977-10c105-47 161-131 179-266 7-52-13-169-29-169-5 0-7-6-4-14 10-25-99-153-133-157-15-2-23-5-45-15-11-5-59-9-106-9-79 0-89 2-129 30-24 17-52 44-62 60-10 17-18 26-18 20 0-5-10 1-20 14-11 13-20 19-20 13 0-5 7-15 15-22 9-7 14-19 11-27s-2-12 3-9c12 8 31-48 22-63-4-6-7-49-6-96 1-60-2-89-12-96-7-6-10-15-7-20s-4-9-15-9c-25 0-27-13-4-31 10-8 14-9 10-2s0 16 10 22c14 7 23 5 39-10 11-10 47-24 80-30 71-14 70-14 51-34-19-18-62-21-51-2 6 9 5 9-7 0-10-8-66-11-185-10-156 2-170 4-166 19 2 10 25 24 52 33 50 17 73 46 65 85-3 13 0 18 7 14 8-5 9 79 5 302-7 375-12 403-82 430-68 26-52 54 25 46 8-1 41 5 72 14 78 23 91 16 83-43-6-47-6-47 14-29 12 11 21 15 21 10s5-1 11 9c10 17 72 53 119 68 41 13 151-1 207-26zm-3511-236c21-17 18-75-3-77-56-4-356-2-360 2-7 6-12 69-7 78 8 12 355 10 370-3zm117 2964c9-2 23-2 30 0 6 3-1 5-18 5-16 0-22-2-12-5zm-232-329c0-11 3-14 6-6 3 7 2 16-1 19-3 4-6-2-5-13zm40-380c0-11 3-14 6-6 3 7 2 16-1 19-3 4-6-2-5-13zm1337-2107c-3-19-2-25 4-19s8 18 6 28c-3 14-5 12-10-9zm64-27c0-14 2-19 5-12 2 6 2 18 0 25-3 6-5 1-5-13zm388-319c0-5 5-13 10-16 6-3 10-2 10 4 0 5-4 13-10 16-5 3-10 2-10-4zm3-58c4-6 2-13-4-15-7-2-6-8 4-16 12-10 16-10 20 2 3 8-2 20-11 28s-13 8-9 1zm-417-20c-11-3-26-12-35-20-13-14-13-15 9-8 20 6 67 38 50 34-3-1-14-4-24-6zm-867 437c-21-14-2-24 23-13 17 7 19 11 6 15-8 4-21 2-29-2zm81-50c0-5 7-10 16-10 8 0 12 5 9 10-3 6-10 10-16 10-5 0-9-4-9-10zm80-40c0-5 4-10 9-10s18-3 28-7c16-6 16-5 4 10-15 19-41 23-41 7zm-1970 411c-24-10-21-39 3-33 19 5 19 4 3-21-17-25-17-25 3-20s26 20 21 53c-3 21-13 29-30 21zm10-171c0-5 5-10 10-10 6 0 10 5 10 10 0 6-4 10-10 10-5 0-10-4-10-10zm5-121c-10-15 3-25 16-12 7 7 7 13 1 17-6 3-14 1-17-5zm2-86c-4-3-7-13-7-21 0-18 13-7 16 13 2 17 1 18-9 8zm-12-73c-7-12 2-30 16-30 5 0 9 9 9 20 0 21-15 27-25 10zm9-113c-17-21-24-47-11-44 7 1 11-7 10-20-2-13 1-23 7-23 5 0 9 23 8 50 0 28-1 50-1 50-1-1-7-6-13-13zm-4-117c0-5 10-10 23-10 18 0 19 2 7 10-19 13-30 13-30 0zm45-40c-3-5-2-10 4-10 5 0 13 5 16 10 3 6 2 10-4 10-5 0-13-4-16-10zm3665 428c-55-28-75-62-96-163-18-88-14-146 17-240 24-70 49-100 96-116 55-18 108-3 156 45 41 40 56 73 76 169 12 56-21 209-54 253-55 72-121 90-195 52zm-190-123c0-8 5-15 10-15 6 0 10 7 10 15s-4 15-10 15c-5 0-10-7-10-15zm6-123c1-42 3-86 3-96 1-11 3-17 6-14s8 44 10 91c4 65 1 86-9 90-11 4-13-10-10-71zm486 51c0-24 3-30 14-26 12 4 12 1-1-23-8-16-15-38-15-49 0-18 2-18 20 5 23 30 28 100 6 100-8 0-16 6-19 13-2 6-4-2-5-20zm30-107c-14-30-9-47 9-29 6 6 9 21 7 34-3 23-3 23-16-5zm-37-96c3-5 11-10 16-10 6 0 7 5 4 10-3 6-11 10-16 10-6 0-7-4-4-10zm665 409c-55-23-101-83-115-149-11-50-12-209-2-203 5 3 7-3 5-13-10-44 66-141 127-164 16-6 45-9 63-5 31 6 95 42 100 57 2 4 13 30 26 57 20 45 22 62 19 163-4 123-25 189-77 237-29 27-105 38-146 20zm-194-116c-9-23 10-41 27-24 10 11 9 12-3 6-12-7-13-6-3 7 7 8 10 18 6 21-11 11-21 8-27-10z"/></g></svg><svg xmlns="http://www.w3.org/2000/svg" width="792" height="792" version="1.0"><g fill="#c9a956" transform="matrix(.1 0 0 -.1 0 792)"><path d="M0 3960V0h7920v7920H0V3960zm4257 2254c-3-3-12-4-19-1-8 3-5 6 6 6 11 1 17-2 13-5zm-638-8c-2-2-26-6-54-9-32-4-43-3-30 3 19 8 93 14 84 6zm704-13c-18-2-48-2-65 0-18 2-4 4 32 4s50-2 33-4zm102-3c-11-5-29-8-40-8-16 0-15 2 5 8 34 11 60 11 35 0zm-915-4c0-2-7-7-16-10-8-3-12-2-9 4 6 10 25 14 25 6zm1012-25c15-8 25-17 23-21-3-4 3-7 11-6 9 0 18-7 19-17 3-16 0-15-35 4-22 12-37 25-35 29 3 4-1 8-8 7-6 0-21 1-32 2-20 2-20 2 0 10 23 10 20 10 57-8zm-1076-4c-82-52-111-74-111-84 0-6-4-15-9-20s-6-3-2 5c14 24-9 11-54-30-37-35-36-33 8 13 45 47 163 131 182 128 3 0-4-6-14-12zm44-1c0-2-7-7-16-10-8-3-12-2-9 4 6 10 25 14 25 6zm1224-133c6-15 5-15-14 2-11 10-20 14-21 9 0-5-4 1-9 13-7 16-14 21-26 16-12-4-15-3-10 5 4 7 2 12-3 12-6 0-11 5-11 10 0 16 86-46 94-67zm-1460-48c-9-14-18-25-21-25-5 0 5 18 20 38 17 22 18 13 1-13zm-40-20c-9-14-18-25-21-25-5 0 5 18 20 38 17 22 18 13 1-13zm-41-70c-3-9-8-14-10-11-3 3-2 9 2 15 9 16 15 13 8-4zm-12-72c-12-20-14-14-5 12 4 9 9 14 11 11 3-2 0-13-6-23zm-26-40c-5-101-18-193-26-193-13 0-11 78 2 86 6 4 8 20 4 40-5 29 9 114 19 114 2 0 3-21 1-47zm592-150c-3-10-5-4-5 12 0 17 2 24 5 18 2-7 2-21 0-30zm547-26c7-6 6-7-4-4-8 2-16 12-17 23-2 13-1 15 4 4 3-8 11-19 17-23zm302-1119l-6-953-830-3c-661-2-830 0-830 10 0 7-9 99-20 203-11 105-27 271-35 370-9 99-33 362-55 585s-44 457-50 520-13 139-16 168l-6 52h1855l-7-952zm-338-1703c-2-124-1-225 1-225s30 20 62 44c41 31 74 47 105 52 115 17 222-36 273-136 15-29 19-72 25-245 5-147 10-212 19-217 7-4 26-8 44-8 29 0 53-21 53-44 0-10-378-7-384 3-14 21 8 39 54 45 47 6 50 8 56 43 4 20 4 113 2 208-6 186-16 226-66 265-68 54-191-6-223-108-15-47-23-304-12-357 8-35 13-40 50-50 46-11 56-18 59-40 2-13-27-15-197-15-168 0-199 2-199 15 0 19 31 35 67 35 16 0 34 5 41 12 9 9 12 117 12 424 0 227-3 419-6 428s-18 16-33 16c-62 0-95 28-53 45 16 7 181 31 230 34 23 1 23 1 20-224zm-636 134c79-34 80-35 96-9 7 11 19 20 27 20 12 0 15-18 17-92 1-51 2-108 3-125 4-63-39-33-69 49-14 39-27 54-74 83-76 47-118 58-178 45-93-21-134-64-134-143 0-32 6-51 23-68 12-13 92-55 177-93 160-71 216-104 261-153 52-55 69-94 69-158 0-152-122-269-296-282-118-9-194 3-255 43-63 40-79 42-79 10 0-28-27-56-34-35-2 8-7 79-10 158-6 145-6 145 14 126 11-10 25-35 31-55 18-59 71-122 130-155 48-26 63-29 140-28 97 1 129 13 177 67 37 42 49 94 32 136-15 35-79 77-175 115-249 98-335 183-335 335 0 62 3 71 39 121 46 64 112 104 192 118 74 12 132 4 211-30zm-1852 6c0-8-14-17-37-21-57-10-71-21-83-62-5-21-10-148-10-295 0-277 7-330 53-398 35-51 68-69 146-81 142-21 224 19 283 140 33 67 33 67 32 329-2 306-3 310-92 354-98 47-94 49 126 49 111 0 202-4 202-8 0-5-24-18-54-31-95-39-90-20-96-370-5-290-7-309-28-356-30-67-85-122-152-154-52-24-64-26-205-26-171 0-211 9-279 61-97 74-116 167-116 579 0 121-4 225-8 232-4 6-29 20-56 30s-51 24-54 31c-3 9 44 12 212 12 182 0 216-2 216-15zm3648-279c142-38 232-129 261-263 20-98-25-232-99-296-77-66-134-89-229-94-105-6-149 5-230 57-201 130-198 441 6 552 99 54 197 69 291 44zm1005-15c56-24 123-83 147-131 47-93 50-240 6-336-28-61-93-130-144-151-49-20-167-28-220-14-23 7-58 26-78 43l-36 32 5-154c6-166 6-165 67-176 60-10 85-20 85-35 0-12-38-14-217-17-120-1-218 1-218 5 1 18 18 33 62 52 44 18 47 23 55 68 4 26 8 190 7 363 0 367 0 363-82 396-45 18-50 23-38 33 9 7 43 15 77 17 34 3 69 9 79 14 10 6 32 10 49 10 29 0 31-2 31-40 0-45 7-48 41-21 27 21 84 52 114 63 34 12 160 0 208-21zm-3495-278c3-40 2-42-30-48-18-4-105-5-193-3l-159 3-7 34c-13 63-16 62 195 59l191-3 3-42zm213 3401c0-11 3-14 6-6 3 7 2 16-1 19-3 4-6-2-5-13zm-161-442c0-10 6-26 13-35 11-15 28-17 132-15 120 3 120 3 120 33s0 30-132 33c-123 2-133 1-133-16zm1160-4c0-46 9-49 141-46 124 3 124 3 127 36l3 32h-135c-134 0-136 0-136-22zm1146-2718c-64-20-100-75-121-186-13-63-13-85-1-152 25-140 69-197 156-197 66 0 112 33 147 103 26 52 28 66 28 172 0 101-3 121-24 163-40 81-113 120-185 97zm926-6c-44-23-79-66-94-117-19-65-16-233 5-288 45-117 169-159 248-83 49 47 64 104 64 239 0 104-3 126-23 166-12 25-33 56-47 69-32 30-107 37-153 14z"/></g></svg><svg xmlns="http://www.w3.org/2000/svg" width="792" height="792" version="1.0"><g fill="#8e7747" transform="matrix(.1 0 0 -.1 0 792)"><path d="M0 3960V0h7920v7920H0V3960zm3810 2247c30-8 69-21 85-30 27-14 28-16 8-17-12 0-25 5-28 10-3 6-12 10-18 10-7 0 2-9 18-20 38-25 30-25-27-1-159 71-399 11-548-138-36-35-69-64-73-62-5 1-6-3-2-9 3-5-6-29-20-53-34-60-75-182-75-228 0-52-11-100-21-93-12 7-11 98 1 165 5 30 31 96 56 148 61 123 146 211 260 266 44 21 99 44 124 51 59 17 191 17 260 1zm652-15c69-25 168-83 222-131 39-36 122-153 144-204 15-35 15-59 1-33-9 15-13 16-20 5s-9-11-9 3c0 9-27 57-60 107-61 91-114 136-234 200-109 57-289 65-384 17-61-31-62-31-62-7 0 17 54 48 115 64 46 13 230-1 287-21zm-586-156c-51-61-45-67 14-12 27 25 53 46 57 46s-6-11-23-25c-49-38-133-168-159-246-14-40-28-101-31-138-11-106-23-106-23-1-1 74 5 110 23 161 24 68 87 171 139 227 44 45 45 40 3-12zm263-39c77-100 141-274 141-383 0-67-24-30-42 63-9 52-31 123-52 168-20 42-33 81-31 85 3 5 0 12-6 16-8 5-10 2-5-7 10-18-48 47-76 86-21 29-20 29 15-4 43-40 50-31 10 12-18 17-22 26-11 22 9-4 35-30 57-58zm699-292c-1-40-1-40-8 5-4 25-10 59-14 75-6 27-5 27 8-5 8-19 14-53 14-75zm21 35c0-23-1-23-9-5-5 11-9 31-9 45 0 23 1 23 9 5 5-11 9-31 9-45zm-1-145c1-20 1-20-8 0-5 11-8 31-8 45v25l8-25c4-14 8-34 8-45zm-1900-112c-42-2-114-2-160 0-46 1-11 3 77 3s125-2 83-3zm545 0c-72-2-194-2-270 0-76 1-16 3 132 3 149 0 211-2 138-3zm700 0c-89-2-237-2-330 0-92 1-19 3 162 3 182 0 257-2 168-3zm385 0c-15-2-42-2-60 0s-6 4 27 4 48-2 33-4zm-13-1960c-3-10-180-13-834-13-831 0-831 0-835 23-3 12-12 96-21 187-8 91-20 210-25 265s-16 181-25 280-29 311-45 470c-16 160-34 353-40 430s-15 168-19 202l-8 63 926 2 926 3 3-950c1-522 0-956-3-962zm-335-743c0-135 4-220 10-220 5 0 25 14 44 30 92 81 228 79 332-4 66-53 74-82 82-318l7-212 43-11c38-9 61-27 62-47 0-5-88-8-196-8-195 0-195 0-192 23 2 18 12 24 56 31l52 9 2 91c3 145-2 298-13 338-22 84-92 118-169 83-93-42-125-142-117-359 3-76 8-140 10-143 3-2 27-9 53-16 42-10 49-15 49-37s-4-25-32-24c-18 0-107 1-198 2-137 2-165 4-165 17 0 17 23 30 71 39 33 6 37 10 43 44 8 49 8 716 0 776-5 34-11 46-24 46-37 0-80 22-80 41 0 10 6 19 13 20 6 0 50 7 97 14s102 13 123 14l37 1v-220zm-633 131c67-29 67-29 90-4 39 42 48 20 48-119 0-147-12-159-60-61-38 77-55 96-118 128-124 61-264 9-274-102-7-71 20-98 149-153 224-95 315-156 359-242 46-89 11-233-71-298-70-56-125-74-238-78-120-5-175 6-236 49-47 34-66 32-66-6 0-27-17-42-31-28-15 15-23 303-10 303 7 0 27-33 45-72 37-80 90-138 148-163 48-19 186-20 232-1 68 28 116 123 92 181-18 43-52 67-144 105-281 115-365 195-366 350 0 58 4 71 32 112 91 132 256 171 419 99zm-1864 19c4 0 7-6 7-14 0-15-10-20-67-31-55-11-63-56-63-348 0-223 2-257 21-319 15-51 30-79 58-107 43-43 71-51 179-51 93 0 143 22 189 83 59 79 63 103 63 386 0 308-1 310-97 355-35 16-63 33-63 37 0 5 80 9 178 11 248 4 265-1 163-45-33-14-66-36-73-49-9-17-14-104-18-328-6-282-8-309-27-351-26-57-82-113-148-148-48-25-56-26-215-26-182 0-206 5-277 62-59 47-91 105-103 188-5 39-10 185-10 325s-3 266-7 279c-4 16-22 31-59 47-49 22-62 33-50 45 3 3 369 3 419-1zm3665-294c174-47 288-214 252-373-25-116-77-185-181-246-85-49-249-53-339-7-22 11-63 44-93 72-42 41-58 67-75 117-68 201 27 381 228 435 70 19 141 19 208 2zm1007-19c64-32 130-101 148-153 33-92 38-146 22-222-18-86-34-119-82-173-47-52-94-76-177-89-78-12-163 5-200 39-12 12-27 21-32 21-6 0-9-51-6-137 4-153 6-158 71-169 53-8 81-22 81-39 0-8-6-15-12-16-53-3-423 2-427 7-12 11 17 37 59 53 38 14 45 22 52 51 4 19 8 182 8 362 1 385 1 386-79 413-51 16-61 27-40 41 13 8 147 26 204 28 39 1 40 0 43-37l3-37 32 24c69 53 116 67 202 63 61-3 93-11 130-30zm-3506-241c14-16 11-64-5-77-7-5-90-8-200-7l-189 3-3 33c-6 63-11 62 196 62 147 0 192-3 201-14zm891 3558c-34-55-73-151-67-168 3-6 8 3 12 19 10 37 51 120 78 157 11 15 18 31 14 34-3 3-20-15-37-42zm-832-619c-3-3-3-16-1-30 4-18 13-25 42-29 46-8 207-3 216 6 4 4 5 19 1 33-6 25-6 25-130 25-67 0-125-2-128-5zm1161-2c-3-21 4-49 15-55 13-9 192-10 224-2 18 5 22 13 20 33-3 26-3 26-130 29-71 1-129-1-129-5zm1154-2733c-71-16-104-53-127-145-30-111-13-257 39-336 46-71 148-70 216 1 47 49 64 112 64 230 0 84-3 102-28 150-40 80-96 114-164 100zm906-13c-84-45-106-111-97-297 4-78 9-105 27-134 67-108 197-115 260-12 15 23 26 65 33 123 25 198-42 343-157 343-12 0-42-10-66-23z"/></g></svg><svg xmlns="http://www.w3.org/2000/svg" width="792" height="792" version="1.0"><g fill="#483c2d" transform="matrix(.1 0 0 -.1 0 792)"><path d="M0 3960V0h7920v7920H0V3960zm3757 2259c86-12 230-71 230-95 0-8-4-14-9-14-4 0-8 4-8 9s-8 7-18 5c-9-3-43 6-74 20-79 35-164 47-253 36-175-22-317-117-413-275-38-63-82-197-82-250 0-51-9-85-23-85-18 0-2 189 22 252 31 81 109 195 171 251 88 80 247 148 362 156 9 0 52-4 95-10zm653-11c67-12 188-73 255-129 99-82 173-208 200-341 16-82 20-168 8-168-23 1-32 25-47 125-27 185-104 309-251 401-107 66-178 87-296 87-87 0-104-3-162-31-60-27-107-33-107-12 0 14 139 71 196 79 62 9 113 7 204-11zm-317-157c60-57 119-154 153-251 28-81 45-230 26-230-16 0-20 10-32 85-22 138-78 259-164 353-50 54-90 76-114 63-27-15-104-100-140-157-43-68-71-151-85-257-13-97-30-118-35-43-5 70 15 183 43 243 48 105 157 243 192 243 13 0 13-3 3-15-11-13-10-14 4-9 9 3 16 10 16 15s12 4 26-1c21-8 25-8 21 4-11 28 38 4 86-43zm1092-561c102-12-276-15-1300-11-665 3-1120 8-1010 11 191 5 2269 4 2310 0zm-291-235c-19-271-33-538-41-752-6-193-6-193 16-193 12 0 24 6 26 13 2 6 11 145 19 307 9 162 18 329 21 370 17 256 25 412 20 419-5 8 76 18 190 24l39 2-2-80c-4-115-30-457-47-626-16-151-51-527-85-909-12-124-23-246-27-272l-6-48h-357v904c0 496 3 931 6 964l7 61 111 3c61 2 114 1 117-2s0-86-7-185zm-306-750c1-511 0-945-3-962l-6-33h-834c-570 0-836 3-840 10-4 6-13 77-20 158-8 81-32 338-54 572-99 1047-108 1149-102 1182 0 4 418 6 929 5l927-2 3-930zm-1901 483c-2-13-4-5-4 17-1 22 1 32 4 23 2-10 2-28 0-40zm1553-2203c0-124 4-225 8-225 5 0 27 16 49 35 53 45 81 55 156 55 102-1 185-50 229-135 18-35 22-67 29-250 4-115 8-211 8-212 1-2 11-3 24-3 41 0 64-12 76-36 8-19 8-26-2-29-6-3-95-4-197-2-185 2-185 2-188 29-3 28 1 30 88 41 13 2 15 34 15 217 0 206-1 217-23 251-27 44-69 64-117 55-39-8-99-55-119-95-26-49-37-170-29-295l8-119 50-16c42-14 50-20 50-41 0-25 0-25-165-28-184-3-230 2-230 24 0 16 56 44 88 44 16 0 20 11 26 77 8 99 8 505-1 661-5 102-9 122-22 122-35 0-91 22-91 35 0 22 15 27 144 45 66 10 124 18 129 19 4 0 7-100 7-224zm-685 148c27-9 60-22 74-30 36-18 50-16 70 9 11 13 24 19 34 15 15-5 17-25 17-137 0-102-3-130-13-130-20 0-42 29-62 83-19 51-49 79-122 116-139 70-308-43-249-166 17-36 31-44 256-142 108-47 179-100 229-172 32-45 35-55 34-118-2-147-99-248-271-281-94-19-223 0-280 40-54 38-71 38-78 0-7-34-39-42-48-12-4 14-10 250-7 291 2 26 32-11 62-78 54-118 115-161 242-169 95-6 155 14 193 63 27 36 40 90 30 129-8 33-74 77-170 115-200 80-275 135-322 234-42 90-29 176 37 251 23 26 55 54 73 63 85 45 188 55 271 26zm-1798-7c11-11-26-36-53-36-39 0-63-31-75-94-6-35-9-155-7-300 3-220 6-246 26-297 27-67 76-118 128-130 63-14 172-11 210 7 49 24 99 83 124 150 21 56 21 71 18 314-4 298-6 308-93 342-56 22-77 37-70 48 4 6 368 7 408 1 19-3-8-22-64-47-42-19-64-36-71-53-6-15-13-157-17-331-6-305-6-305-36-359-37-66-92-114-164-143-46-17-78-21-176-22-159-1-222 14-288 68-60 49-93 102-107 175-5 28-10 171-11 318-1 148-5 282-10 300-8 26-17 34-59 48-36 12-50 22-50 35 0 18 10 19 215 16 118-1 218-6 222-10zm3716-312c131-67 192-161 191-294-1-143-67-246-202-312-57-28-73-32-155-32-78 0-100 4-147 25-113 53-185 144-211 268-20 97 14 202 93 278 108 105 298 134 431 67zm565 24c7-7 12-25 12-40 0-28 13-37 26-17 3 6 34 24 68 40 107 51 230 36 331-40 61-46 97-110 116-208 11-54 10-72-5-140-22-92-40-126-102-183s-104-72-199-73c-81-2-118 9-173 49-24 17-24 17-20-125 3-159 2-156 78-166 57-8 73-17 68-41-3-18-17-19-213-21-116-2-216 1-223 5-22 14-3 38 51 63 47 22 53 28 59 64 10 56 9 609-1 669-9 54-35 83-83 93-65 13-34 52 41 54 25 0 64 6 86 14 52 17 68 18 83 3zm-3128-258c6-8 9-31 8-50l-3-35h-400l-3 47c-4 58-10 57 216 55 141-2 175-5 182-17zm64 2925c-15-39 0-45 126-45 120 0 120 0 120 24 0 22-4 24-72 29-137 10-168 9-174-8zm1234 7c-75-3-78-4-78-27 0-25 0-25 125-25 69 0 125 4 125 9s3 16 6 24c6 18-52 24-178 19zm1024-2752c-65-40-106-194-83-317 15-87 53-166 86-181 43-20 108-15 146 11 119 80 131 370 19 471-34 31-47 36-88 36-30 0-59-8-80-20zm990 22c-34-11-90-59-108-95-19-37-30-178-20-260 9-67 46-128 96-156 70-39 144-18 185 53 47 80 52 282 9 371-32 68-101 105-162 87z"/></g></svg><svg xmlns="http://www.w3.org/2000/svg" width="792" height="792" version="1.0"><g fill="#010201" transform="matrix(.1 0 0 -.1 0 792)"><path d="M0 3960V0h7920v7920H0V3960zm3776 2260c32-6 91-25 129-42 39-18 77-31 85-31 8 1 46 16 84 33 38 18 100 37 139 42 234 35 499-112 607-337 27-57 70-234 70-289 0-21-5-26-24-26-26 0-30 9-41 105-26 217-123 359-311 453-123 62-300 69-410 15l-61-29 52-56c67-71 119-158 150-247 31-88 49-199 37-231-9-24-9-24-24 1-9 13-21 57-27 98-30 188-181 408-266 387-50-13-171-183-199-280-8-28-22-98-30-155-9-57-18-106-20-109-3-2-8 18-12 44-9 65 1 199 21 254 25 70 90 173 150 238l55 59-63 29c-48 21-81 29-147 32-232 11-421-104-533-324-25-48-57-174-57-220 0-58-8-78-26-63-30 24-4 197 43 295 73 149 151 231 287 299 121 61 216 77 342 55zm1473-730c12-7 14-33 13-127-3-116-48-723-57-753-2-8-16-145-30-305-42-494-76-786-96-832-15-36-23-43-56-49-21-5-506-8-1078-9-1142 0-1097-2-1108 58-4 18-11 59-17 92-11 62-53 473-65 630-3 50-17 191-31 315-13 124-29 279-35 345-5 66-17 193-25 282-7 89-14 196-14 239 0 67 2 75 15 64 12-10 15-10 15 3s15 17 78 20c77 3 77 3-15 5-93 2-127 17-55 25 79 8 2548 6 2561-3zM4247 2792c0-118 4-216 7-220 4-3 19 6 34 20 60 56 151 80 229 59 63-17 134-70 162-121 23-42 26-58 33-250 4-112 10-210 12-217 3-7 21-13 40-13 27 0 40-6 52-25 8-13 13-29 9-35s-76-10-201-10h-194v29c0 30 14 41 55 41 49 0 55 19 55 178-1 239-17 308-85 341-34 17-90 3-133-34-50-42-65-94-70-248-5-149 3-227 21-227 7 0 29-5 50-11 32-9 37-14 37-39v-30h-194c-145 0-196 3-204 13-17 20 2 39 54 52l49 12 3 422c2 332 0 422-10 425-7 2-32 9-55 15-48 13-56 35-20 51 26 12 201 39 237 37 25-2 25-2 27-215zm-631 122c58-27 58-27 72-6 8 12 25 22 38 22 24 0 24 0 24-135 0-125-1-135-19-135-23 0-33 13-55 70-35 90-116 145-211 144-104-1-165-50-165-133 0-25 7-54 14-63 14-19 101-64 185-97 171-68 273-144 311-233 43-101 4-238-88-301-86-60-128-72-252-72-117 0-164 10-205 45-40 34-55 32-71-5-15-37-25-43-41-22-15 19-26 304-12 313 15 9 42-27 63-85 44-121 151-180 299-165 57 6 76 12 102 35 70 62 81 144 27 194-15 14-86 50-159 81-159 67-208 97-256 156-49 60-67 106-67 174 0 95 54 175 148 220 102 49 212 48 318-2zm-1859 11c8-21 1-26-54-40-69-17-71-30-74-347-2-287 4-334 58-406 34-45 71-61 155-68 129-11 199 26 253 132 30 59 30 59 29 324 0 298-5 326-67 351-72 28-97 42-97 55 0 12 34 14 207 12 135-2 208-7 210-14 2-5-23-23-56-38s-66-34-73-43c-10-12-14-90-19-322-5-291-7-309-29-359-30-68-112-144-182-169-66-22-284-25-365-5-94 24-179 112-205 210-5 20-13 177-16 347l-7 310-52 25c-110 53-91 60 163 60 184 0 215-2 221-15zm3665-285c59-17 160-90 194-141 116-174 46-398-155-496-50-25-67-28-156-28-90 0-106 3-158 28-133 66-201 174-201 322 0 165 89 269 274 320 57 16 136 14 202-5zm958-2c86-27 170-109 195-190 60-196-3-371-163-452-75-38-254-26-292 19-25 30-30 13-30-99 0-153 4-162 79-177 68-13 91-30 71-54-11-13-46-15-229-13-208 3-216 4-216 23 0 14 15 27 52 44 45 21 54 30 60 60 5 20 8 182 7 361 0 377 0 375-79 401-27 10-51 22-53 27-5 17 36 34 87 36 25 2 69 9 97 16 67 17 84 10 84-35 0-19 2-35 5-35 2 0 24 14 48 30 66 47 113 61 182 55 33-3 76-11 95-17zm-3471-252c7-8 11-32 9-53-3-38-3-38-58-45-71-8-298-9-327-2-20 5-23 13-23 53 0 26 3 51 7 54 3 4 91 7 193 7 151 0 190-3 199-14zm2019 3086c-248-2-278-4-278-18 0-13 3-14 15-4 18 15 236 10 240-5 8-27 13-255 6-250-9 5-16-85-31-415-12-259-13-440-1-440 5 0 12 89 16 198 4 108 13 292 19 407 8 136 8 212 2 217-6 4-5 12 2 21 13 16 32 226 20 233-17 11 6 36 28 31 13-2 24-1 24 2 0 6 169 5 215-1 12-2 20 3 20 11 0 18 29 17-297 13zm-1958-12c93-4 112-7 75-11-34-4-19-6 50-6 55 0 89 2 75 6-14 3 29 8 95 11 76 4 21 6-150 6-182 0-229-2-145-6zm653 3c31-2 83-2 115 0 31 2 5 3-58 3s-89-1-57-3zm547-3c54-4 66-7 45-11-16-3 58-6 165-6s174 2 147 4c-26 2-45 8-42 14 4 5-70 8-192 7-132-1-173-4-123-8zm-1454-18c-2-4 11-6 30-4s34 6 34 8c0 8-59 4-64-4zm117 1c9-2 23-2 30 0 6 3-1 5-18 5-16 0-22-2-12-5zm75 0c18-2 45-2 60 0s0 4-33 4-45-2-27-4zm650 0c7-3 16-2 19 1 4 3-2 6-13 5-11 0-14-3-6-6zm95 0c32-2 81-2 110 0s3 3-58 3c-60 0-84-1-52-3zm-683-152c0-27 18-31 141-31 109 0 109 0 109 25s0 25-125 25c-116 0-125-1-125-19zm1162-3c3-22 7-23 126-26 122-3 122-3 122 23 0 25 0 25-126 25-124 0-125 0-122-22zm1113-2727c-50-30-64-54-86-142-19-74-20-93-11-155 24-154 64-209 152-209 75 0 136 57 161 149 19 69 7 225-22 282-42 85-126 118-194 75zm939 0c-17-10-41-32-52-48-46-65-54-284-14-361 10-20 35-50 56-66 30-25 47-31 83-30 54 1 89 25 123 85 23 41 25 54 25 174 0 116-3 135-23 177-13 27-35 57-49 68-34 26-107 27-149 1z"/></g></svg></g></svg>